<svg width="32" height="32" viewBox="0 0 32 32" fill="none" xmlns="http://www.w3.org/2000/svg">
<circle cx="16" cy="16" r="16" fill="url(#paint0_linear_115_315)"/>
<circle cx="16" cy="16" r="16" fill="url(#paint1_linear_115_315)" fill-opacity="0.9"/>
<path d="M16.6168 10.0007C17.0546 9.99906 17.4924 10.0035 17.9301 10.0139L18.0465 10.0181C18.1809 10.0229 18.3135 10.0289 18.4737 10.0361C19.1121 10.0661 19.5477 10.1669 19.9298 10.3151C20.3258 10.4675 20.6594 10.6739 20.993 11.0075C21.298 11.3073 21.534 11.6698 21.6847 12.0701C21.8329 12.4523 21.9337 12.8884 21.9637 13.5268C21.9709 13.6864 21.9769 13.8196 21.9817 13.954L21.9853 14.0704C21.996 14.5079 22.0006 14.9455 21.9991 15.3832L21.9997 15.8307V16.6167C22.0012 17.0545 21.9966 17.4924 21.9859 17.9301L21.9823 18.0465C21.9775 18.1809 21.9715 18.3135 21.9643 18.4736C21.9343 19.112 21.8323 19.5476 21.6847 19.9298C21.5345 20.3304 21.2984 20.6933 20.993 20.993C20.693 21.2979 20.3302 21.534 19.9298 21.6847C19.5477 21.8329 19.1121 21.9337 18.4737 21.9637C18.3135 21.9709 18.1809 21.9769 18.0465 21.9817L17.9301 21.9853C17.4924 21.996 17.0546 22.0006 16.6168 21.9991L16.1692 21.9997H15.3839C14.946 22.0012 14.5082 21.9966 14.0705 21.9859L13.9541 21.9823C13.8117 21.9772 13.6693 21.9712 13.527 21.9643C12.8886 21.9343 12.453 21.8323 12.0702 21.6847C11.6699 21.5344 11.3072 21.2982 11.0077 20.993C10.7023 20.6931 10.4661 20.3303 10.3153 19.9298C10.1671 19.5476 10.0663 19.112 10.0363 18.4736C10.0297 18.3313 10.0237 18.1889 10.0183 18.0465L10.0153 17.9301C10.0043 17.4924 9.99928 17.0545 10.0003 16.6167V15.3832C9.99867 14.9455 10.0031 14.5079 10.0135 14.0704L10.0177 13.954C10.0225 13.8196 10.0285 13.6864 10.0357 13.5268C10.0657 12.8878 10.1665 12.4529 10.3147 12.0701C10.4655 11.6697 10.7023 11.3072 11.0083 11.0081C11.3076 10.7026 11.67 10.4661 12.0702 10.3151C12.453 10.1669 12.888 10.0661 13.527 10.0361L13.9541 10.0181L14.0705 10.0151C14.508 10.0041 14.9456 9.99908 15.3833 10.0001L16.6168 10.0007ZM16 13.0006C15.6026 12.995 15.2079 13.0684 14.8391 13.2167C14.4702 13.3649 14.1345 13.5849 13.8515 13.864C13.5684 14.1431 13.3436 14.4757 13.1902 14.8424C13.0368 15.2092 12.9578 15.6027 12.9578 16.0002C12.9578 16.3978 13.0368 16.7913 13.1902 17.158C13.3436 17.5248 13.5684 17.8573 13.8515 18.1364C14.1345 18.4155 14.4702 18.6356 14.8391 18.7838C15.2079 18.932 15.6026 19.0055 16 18.9998C16.7956 18.9998 17.5587 18.6838 18.1213 18.1212C18.6838 17.5586 18.9999 16.7956 18.9999 15.9999C18.9999 15.2043 18.6838 14.4413 18.1213 13.8787C17.5587 13.3161 16.7956 13.0006 16 13.0006ZM16 14.2006C16.2391 14.1962 16.4767 14.2395 16.6989 14.3279C16.9211 14.4164 17.1234 14.5482 17.294 14.7157C17.4647 14.8832 17.6003 15.0831 17.6928 15.3036C17.7854 15.5241 17.8331 15.7608 17.8331 15.9999C17.8331 16.2391 17.7855 16.4758 17.693 16.6963C17.6006 16.9169 17.4651 17.1168 17.2945 17.2843C17.1239 17.4519 16.9216 17.5838 16.6994 17.6723C16.4773 17.7608 16.2397 17.8042 16.0006 17.7999C15.5233 17.7999 15.0655 17.6102 14.7279 17.2727C14.3904 16.9351 14.2007 16.4773 14.2007 15.9999C14.2007 15.5226 14.3904 15.0647 14.7279 14.7272C15.0655 14.3896 15.5233 14.2 16.0006 14.2L16 14.2006ZM19.1499 12.1007C18.9563 12.1084 18.7733 12.1908 18.6391 12.3304C18.5049 12.4701 18.4299 12.6563 18.4299 12.85C18.4299 13.0438 18.5049 13.23 18.6391 13.3696C18.7733 13.5093 18.9563 13.5917 19.1499 13.5994C19.3488 13.5994 19.5395 13.5204 19.6802 13.3798C19.8208 13.2391 19.8998 13.0483 19.8998 12.8494C19.8998 12.6505 19.8208 12.4598 19.6802 12.3191C19.5395 12.1785 19.3488 12.0995 19.1499 12.0995V12.1007Z" fill="white"/>
<defs>
<linearGradient id="paint0_linear_115_315" x1="0" y1="0" x2="32" y2="32" gradientUnits="userSpaceOnUse">
<stop stop-color="#6E6BCE"/>
<stop offset="0.541681" stop-color="#E64C64"/>
<stop offset="1" stop-color="#E44472"/>
</linearGradient>
<linearGradient id="paint1_linear_115_315" x1="32" y1="-1.90735e-06" x2="1.90735e-06" y2="32" gradientUnits="userSpaceOnUse">
<stop stop-color="#DD79E9"/>
<stop offset="0.520834" stop-color="#E64C60"/>
<stop offset="0.994795" stop-color="#D3AD3C"/>
</linearGradient>
</defs>
</svg>
