<svg width="20" height="21" viewBox="0 0 20 21" fill="none" xmlns="http://www.w3.org/2000/svg">
<path d="M13.2475 14.61L14.9275 12.93C15.1538 12.7066 15.44 12.5536 15.7516 12.4897C16.0631 12.4258 16.3865 12.4537 16.6825 12.57L18.73 13.3875C19.0291 13.5089 19.2856 13.7162 19.4671 13.9831C19.6486 14.25 19.747 14.5647 19.75 14.8875V18.6375C19.7482 18.8571 19.7021 19.0741 19.6143 19.2753C19.5265 19.4766 19.3989 19.658 19.2391 19.8087C19.0793 19.9594 18.8907 20.0761 18.6847 20.152C18.4786 20.2278 18.2593 20.2612 18.04 20.25C3.69248 19.3575 0.797478 7.20753 0.249978 2.55753C0.224563 2.32918 0.247784 2.09804 0.318114 1.87931C0.388445 1.66058 0.50429 1.45922 0.658029 1.28848C0.811768 1.11774 0.999916 0.981484 1.2101 0.888679C1.42028 0.795873 1.64772 0.748621 1.87748 0.750031H5.49998C5.82324 0.750987 6.13881 0.848631 6.40612 1.0304C6.67344 1.21217 6.88025 1.46976 6.99998 1.77003L7.81748 3.81753C7.93767 4.11233 7.96833 4.43601 7.90564 4.74814C7.84295 5.06027 7.68968 5.347 7.46498 5.57253L5.78498 7.25253C5.78498 7.25253 6.75248 13.8 13.2475 14.61Z" fill="url(#paint0_linear_69_33)"/>
<defs>
<linearGradient id="paint0_linear_69_33" x1="-1.12484e-07" y1="1" x2="20" y2="20" gradientUnits="userSpaceOnUse">
<stop stop-color="#C8A06F"/>
<stop offset="1" stop-color="#BF894B"/>
</linearGradient>
</defs>
</svg>
