<svg width="8" height="11" viewBox="0 0 8 11" fill="none" xmlns="http://www.w3.org/2000/svg">
<path d="M2.73 6.71C2.73 6.29933 2.85133 5.90733 3.094 5.534C3.346 5.16067 3.61667 4.862 3.906 4.638C4.19533 4.40467 4.46133 4.134 4.704 3.826C4.956 3.518 5.082 3.21 5.082 2.902C5.082 2.57533 4.97 2.32333 4.746 2.146C4.522 1.96867 4.20933 1.88 3.808 1.88C3.024 1.88 2.46867 2.29533 2.142 3.126L0.49 2.174C0.77 1.48333 1.21333 0.951333 1.82 0.577999C2.436 0.195333 3.122 0.00399935 3.878 0.00399935C4.72733 0.00399935 5.46 0.251333 6.076 0.746C6.70133 1.23133 7.014 1.90333 7.014 2.762C7.014 3.154 6.93 3.518 6.762 3.854C6.60333 4.19 6.40733 4.47933 6.174 4.722C5.95 4.95533 5.72133 5.17933 5.488 5.394C5.264 5.59933 5.068 5.814 4.9 6.038C4.74133 6.262 4.662 6.486 4.662 6.71H2.73ZM4.536 9.832C4.30267 10.0653 4.02267 10.182 3.696 10.182C3.36933 10.182 3.08933 10.0653 2.856 9.832C2.62267 9.59867 2.506 9.31867 2.506 8.992C2.506 8.66533 2.62267 8.38533 2.856 8.152C3.08933 7.91867 3.36933 7.802 3.696 7.802C4.02267 7.802 4.30267 7.91867 4.536 8.152C4.76933 8.38533 4.886 8.66533 4.886 8.992C4.886 9.31867 4.76933 9.59867 4.536 9.832Z" fill="white"/>
</svg>
