<svg width="16" height="16" viewBox="0 0 16 16" fill="none" xmlns="http://www.w3.org/2000/svg">
<path d="M8.00066 1.33398C11.6827 1.33398 14.6673 4.31865 14.6673 8.00065C14.6673 11.6827 11.6827 14.6673 8.00066 14.6673C6.82251 14.6692 5.6651 14.3574 4.64733 13.764L1.33666 14.6673L2.23799 11.3553C1.64406 10.3372 1.33203 9.17932 1.33399 8.00065C1.33399 4.31865 4.31866 1.33398 8.00066 1.33398ZM5.72866 4.86732L5.59533 4.87265C5.50901 4.87791 5.42465 4.90059 5.34733 4.93932C5.27501 4.98027 5.20899 5.03147 5.15133 5.09132C5.07133 5.16665 5.02599 5.23198 4.97733 5.29532C4.73074 5.61592 4.59798 6.00953 4.59999 6.41398C4.60133 6.74065 4.68666 7.05865 4.81999 7.35598C5.09266 7.95732 5.54133 8.59398 6.13333 9.18398C6.27599 9.32598 6.41599 9.46865 6.56666 9.60132C7.30225 10.249 8.17883 10.716 9.12666 10.9653L9.50533 11.0233C9.62866 11.03 9.75199 11.0207 9.87599 11.0147C10.0702 11.0046 10.2597 10.9521 10.4313 10.8607C10.5186 10.8157 10.6038 10.7667 10.6867 10.714C10.6867 10.714 10.7153 10.6953 10.77 10.654C10.86 10.5873 10.9153 10.54 10.99 10.462C11.0453 10.4047 11.0933 10.3373 11.13 10.2607C11.182 10.152 11.234 9.94465 11.2553 9.77198C11.2713 9.63998 11.2667 9.56798 11.2647 9.52332C11.262 9.45198 11.2027 9.37798 11.138 9.34665L10.75 9.17265C10.75 9.17265 10.17 8.91998 9.81533 8.75865C9.77821 8.74245 9.73845 8.73318 9.69799 8.73132C9.65238 8.72663 9.60629 8.73177 9.56283 8.74637C9.51936 8.76097 9.47952 8.78471 9.44599 8.81598C9.44266 8.81465 9.39799 8.85265 8.91599 9.43665C8.88833 9.47382 8.85022 9.50192 8.80653 9.51735C8.76284 9.53279 8.71554 9.53487 8.67066 9.52332C8.62723 9.51167 8.58468 9.49697 8.54333 9.47932C8.46066 9.44465 8.43199 9.43132 8.37533 9.40732C7.9927 9.24035 7.63845 9.01475 7.32533 8.73865C7.24133 8.66532 7.16333 8.58532 7.08333 8.50798C6.82105 8.2568 6.59248 7.97265 6.40333 7.66265L6.36399 7.59932C6.33574 7.55676 6.3129 7.51085 6.29599 7.46265C6.27066 7.36465 6.33666 7.28598 6.33666 7.28598C6.33666 7.28598 6.49866 7.10865 6.57399 7.01265C6.64733 6.91932 6.70933 6.82865 6.74933 6.76398C6.82799 6.63732 6.85266 6.50732 6.81133 6.40665C6.62466 5.95065 6.43133 5.49665 6.23266 5.04598C6.19333 4.95665 6.07666 4.89265 5.97066 4.87998C5.93466 4.87598 5.89866 4.87198 5.86266 4.86932C5.77313 4.86487 5.68342 4.86576 5.59399 4.87198L5.72799 4.86665L5.72866 4.86732Z" fill="white"/>
</svg>
